<?xml version="1.0" standalone="no"?>
<!DOCTYPE svg PUBLIC "-//W3C//DTD SVG 20010904//EN"
 "http://www.w3.org/TR/2001/REC-SVG-20010904/DTD/svg10.dtd">
<svg version="1.0" xmlns="http://www.w3.org/2000/svg"
 width="906.000000pt" height="306.000000pt" viewBox="0 0 906.000000 306.000000"
 preserveAspectRatio="xMidYMid meet">

<g transform="translate(0.000000,306.000000) scale(0.100000,-0.100000)"
fill="#000000" stroke="none">
<path d="M223 2214 c-11 -17 -18 -54 -21 -109 l-4 -82 30 -11 c40 -14 57 0 72
55 13 52 41 73 97 73 75 0 73 14 73 -475 0 -472 2 -454 -61 -484 -55 -26 -50
-80 9 -102 16 -6 45 -6 80 1 38 7 75 6 125 -2 68 -11 71 -11 89 11 33 42 15
81 -44 95 -15 3 -32 15 -38 26 -7 14 -10 158 -8 449 3 406 4 430 22 450 12 13
31 21 50 21 59 0 74 -10 100 -66 23 -48 29 -54 56 -54 39 0 53 27 44 86 l-6
45 46 -23 c27 -13 49 -31 52 -43 3 -11 3 -215 2 -453 -3 -416 -4 -434 -22
-448 -11 -8 -30 -14 -42 -14 -22 0 -54 -23 -54 -39 0 -4 6 -16 14 -26 13 -18
29 -20 178 -21 89 -1 168 3 175 8 7 6 19 6 30 0 25 -13 315 -13 331 0 15 13
16 50 0 66 -7 7 -22 12 -35 12 -13 0 -32 9 -43 20 -18 18 -20 33 -20 186 0
132 -3 173 -16 200 -25 53 -68 78 -139 82 -61 3 -94 -10 -182 -74 l-23 -16 0
311 c0 195 -4 320 -10 332 -10 17 -19 18 -118 13 -59 -4 -113 -11 -120 -17 -7
-5 -13 -8 -15 -6 -1 2 -7 13 -13 24 -11 19 -23 20 -317 23 l-306 2 -18 -26z
m1117 -713 c5 -11 10 -83 10 -163 0 -151 -5 -168 -45 -168 -12 0 -29 -6 -39
-13 -16 -12 -25 -11 -60 0 -67 24 -66 21 -66 178 l0 142 24 -4 c15 -3 41 5 68
21 52 31 93 34 108 7z"/>
<path d="M3953 2233 c-7 -2 -13 -20 -13 -38 0 -35 13 -45 59 -45 15 0 32 -5
39 -12 18 -18 17 -933 0 -945 -7 -4 -29 -13 -48 -18 -29 -9 -36 -16 -38 -41
-6 -57 2 -59 302 -59 305 0 326 4 442 81 221 147 298 497 168 764 -69 140
-223 264 -380 305 -44 11 -112 15 -289 14 -126 0 -236 -3 -242 -6z m542 -124
c67 -31 160 -125 191 -193 48 -105 69 -313 43 -426 -28 -123 -113 -241 -206
-286 -49 -24 -68 -28 -152 -28 -100 0 -152 15 -165 49 -9 23 -7 868 2 881 19
28 49 35 142 31 73 -3 107 -10 145 -28z"/>
<path d="M6190 1961 c-5 -11 -10 -50 -10 -88 -1 -126 -25 -181 -96 -219 -25
-13 -40 -28 -42 -43 -5 -29 9 -43 56 -56 l37 -11 5 -199 c4 -175 7 -204 24
-228 24 -35 65 -57 109 -57 58 0 167 84 167 130 0 18 -30 50 -46 50 -5 0 -26
-11 -46 -25 -20 -14 -42 -25 -47 -25 -7 0 -11 61 -11 180 l0 180 54 0 c72 0
105 25 91 66 -10 28 -13 29 -83 32 l-72 3 0 145 c0 81 -5 154 -10 165 -7 12
-21 19 -40 19 -19 0 -33 -7 -40 -19z"/>
<path d="M1843 1666 c-101 -33 -186 -110 -214 -193 -6 -21 -10 -69 -7 -117 3
-66 10 -91 33 -135 34 -61 91 -115 155 -144 124 -57 370 12 370 104 0 43 -37
48 -109 16 -31 -14 -69 -28 -84 -32 -64 -13 -167 47 -201 119 -24 51 -21 134
7 187 28 52 87 97 139 105 70 12 150 -46 160 -116 l3 -25 -135 -5 c-74 -3
-141 -9 -147 -13 -20 -13 -16 -65 6 -77 12 -6 99 -10 214 -10 227 0 223 -2
214 88 -9 101 -64 184 -150 227 -66 32 -190 42 -254 21z"/>
<path d="M3514 1664 c-111 -34 -206 -142 -219 -249 -13 -100 36 -222 117 -290
108 -92 284 -93 408 -4 33 24 41 35 38 56 -4 38 -30 51 -70 34 -114 -47 -141
-53 -184 -41 -52 15 -116 67 -138 114 -22 46 -20 131 3 183 22 48 87 99 137
109 70 13 149 -40 161 -109 l6 -37 -127 0 c-70 0 -136 -5 -147 -10 -12 -7 -19
-21 -19 -40 0 -19 7 -33 19 -40 12 -6 97 -10 208 -10 230 0 229 0 220 89 -11
104 -64 183 -150 226 -69 33 -189 42 -263 19z"/>
<path d="M5160 1667 c-56 -16 -128 -65 -170 -114 -63 -77 -76 -207 -31 -309
28 -63 103 -138 164 -165 103 -45 270 -21 347 51 54 51 24 108 -42 81 -110
-46 -144 -53 -189 -41 -60 16 -133 89 -149 149 -43 159 130 319 256 236 31
-20 64 -73 64 -102 0 -23 -2 -23 -134 -23 -128 0 -136 -1 -150 -22 -20 -29
-20 -34 4 -58 19 -19 33 -20 214 -20 231 0 232 1 222 87 -13 108 -85 207 -174
238 -64 22 -176 28 -232 12z"/>
<path d="M5705 1665 c-98 -46 -129 -142 -75 -230 11 -18 53 -51 102 -79 117
-69 139 -102 102 -154 -21 -31 -53 -41 -86 -30 -20 7 -35 27 -58 74 -27 57
-33 64 -60 64 -42 0 -53 -26 -44 -111 6 -67 9 -72 43 -94 104 -69 269 -49 337
41 25 33 29 46 29 104 0 91 -24 124 -147 206 -101 66 -119 92 -79 114 49 25
105 0 119 -53 12 -45 56 -61 82 -30 21 26 16 118 -7 145 -38 43 -194 63 -258
33z"/>
<path d="M6812 1664 c-13 -9 -37 -41 -55 -72 l-31 -56 -7 33 c-4 18 -11 37
-16 42 -6 6 -54 8 -109 7 -99 -3 -99 -3 -102 -29 -3 -23 4 -31 40 -51 l43 -23
3 -145 c1 -80 0 -155 -3 -166 -3 -14 -20 -28 -45 -38 -34 -13 -40 -20 -40 -45
0 -17 5 -33 12 -37 7 -4 79 -8 160 -9 135 -1 148 0 154 17 10 32 -5 54 -49 74
-50 23 -54 39 -32 126 25 100 68 177 139 250 67 67 74 84 56 119 -13 24 -85
26 -118 3z"/>
<path d="M7167 1670 c-131 -33 -216 -137 -225 -276 -6 -96 15 -158 76 -223 88
-94 225 -130 353 -93 67 20 139 78 174 142 27 50 30 63 30 145 -1 74 -5 98
-23 133 -30 57 -106 130 -160 154 -50 23 -168 32 -225 18z m160 -110 c75 -33
113 -123 96 -226 -19 -108 -77 -168 -164 -168 -96 0 -158 83 -159 209 0 95 27
151 90 183 54 27 82 27 137 2z"/>
<path d="M2643 1645 c-18 -7 -52 -32 -77 -56 l-46 -42 0 36 c0 20 -7 40 -16
48 -23 19 -190 21 -205 3 -19 -23 -6 -58 29 -75 19 -8 38 -22 43 -30 11 -18
11 -320 0 -338 -5 -8 -24 -19 -43 -25 -28 -9 -33 -16 -33 -41 0 -44 39 -61
105 -45 37 9 62 9 100 1 69 -15 77 -14 100 9 11 11 20 16 20 12 0 -21 51 -32
101 -21 36 8 68 8 113 0 79 -14 72 -15 96 11 11 12 20 16 20 10 0 -23 50 -33
106 -22 38 8 69 8 114 0 55 -10 64 -9 81 6 10 9 19 25 19 34 0 20 -31 50 -52
50 -31 0 -36 26 -40 220 -2 166 -6 199 -21 221 -23 34 -58 49 -113 49 -60 0
-101 -19 -150 -69 l-42 -41 -12 30 c-21 51 -65 80 -118 80 -26 -1 -61 -7 -79
-15z m57 -124 c5 -11 10 -85 10 -168 0 -162 -9 -193 -55 -193 -13 0 -28 -8
-34 -17 -9 -17 -10 -17 -16 -1 -4 9 -18 19 -33 23 -50 12 -52 18 -52 170 l0
142 23 -4 c15 -3 34 4 53 20 61 50 88 58 104 28z m328 -146 c3 -188 1 -205
-32 -205 -14 0 -32 -7 -41 -16 -12 -13 -19 -14 -28 -5 -6 6 -19 11 -28 11 -42
0 -49 24 -49 174 0 143 0 143 23 139 14 -3 39 8 72 32 79 56 80 55 83 -130z"/>
<path d="M7601 1636 c-22 -26 -9 -60 29 -78 60 -29 60 -28 60 -172 0 -179 10
-232 54 -273 75 -70 184 -64 269 15 l27 26 0 -50 c0 -27 -4 -76 -10 -109 -8
-50 -16 -66 -46 -93 -34 -32 -39 -34 -97 -30 -61 3 -62 3 -65 -25 -3 -24 2
-30 40 -47 119 -54 243 7 299 147 23 57 24 66 24 370 0 171 -3 315 -8 319 -11
12 -220 13 -234 2 -7 -6 -13 -21 -13 -33 0 -27 13 -39 62 -54 20 -7 39 -19 42
-27 3 -9 6 -88 6 -176 0 -142 -2 -159 -15 -148 -12 10 -25 8 -65 -9 -44 -19
-54 -20 -77 -9 -15 7 -30 24 -34 38 -4 14 -7 105 -8 202 -1 97 -6 189 -11 203
-10 26 -13 27 -58 20 -58 -9 -56 -9 -113 0 -35 5 -48 3 -58 -9z"/>
</g>
</svg>
